<?xml version="1.0" encoding="iso-8859-1"?>
<!-- Generator: Adobe Illustrator 19.0.0, SVG Export Plug-In . SVG Version: 6.00 Build 0)  -->
<svg version="1.1" id="Layer_1" xmlns="http://www.w3.org/2000/svg" xmlns:xlink="http://www.w3.org/1999/xlink" x="0px" y="0px"
	 viewBox="0 0 512 512" style="enable-background:new 0 0 512 512;" xml:space="preserve">
<path style="fill:#FFD3AE;" d="M436.275,276.835L412.988,410.24c-8.117,46.405-39.17,84.017-80.454,101.76H147.471
	c-34.943-40.088-55.053-77.144-56.949-130.277l-0.229-4.167c-1.051-19.76-3.007-39.472-5.858-59.051l-8.853-60.766
	c-0.012-0.447-0.036-0.906-0.036-1.341c0-19.881,15.762-36.332,35.788-37.056c0.459-0.012,0.906-0.024,1.353-0.024
	c0.519,0,1.039,0.012,1.558,0.036c0.64,0.024,1.268,0.06,1.896,0.133c0.411,0.036,0.821,0.072,1.232,0.133
	c1.027,0.121,2.041,0.302,3.044,0.519c0.495,0.109,0.99,0.217,1.486,0.35c0.604,0.157,1.196,0.326,1.788,0.519
	c0.254,0.072,0.519,0.157,0.773,0.242c0.109,0.048,0.217,0.085,0.338,0.121c9.88,3.418,17.912,10.907,21.995,20.521l-0.302-1.8
	l-5.399-32.503c-0.036-0.87-0.036-1.727,0.012-2.573c0.411-13.214,7.803-24.773,18.709-30.993c5.037-2.875,10.834-4.602,17.03-4.831
	c0.459-0.012,0.906-0.024,1.353-0.024h0.278c18.504,0.133,33.988,13.95,36.452,32.08l0.471-0.06l-0.278-2.331L200.724,78.956
	l-4.469-37.177c-2.573-20.328,11.813-38.892,32.14-41.477C229.978,0.097,231.548,0,233.094,0c18.419,0,34.399,13.709,36.766,32.454
	l26.596,222.797c0.749,5.846,9.167,5.943,10.037,0.121L337.39,49.135c3.044-20.267,21.922-34.23,42.19-31.198
	c18.407,2.754,31.609,18.589,31.609,36.646c0,1.836-0.133,3.684-0.411,5.544l-24.326,162.381l-12.598,84.101
	c1.872-12.549,8.213-23.48,17.248-31.259c7.585-6.546,17.103-10.87,27.478-12.078c1.969-0.229,3.974-0.35,6.003-0.35
	C431.951,262.921,437.545,269.564,436.275,276.835z"/>
<g>
	<path style="fill:#E5B48F;" d="M114.639,377.556c-1.051-19.76-3.007-39.472-5.858-59.051l-8.853-60.766
		c-0.012-0.447-0.036-0.906-0.036-1.341c0-16.105,10.345-29.958,24.921-35.023c-4.213-1.464-8.757-2.203-13.481-2.033
		c-20.026,0.725-35.788,17.175-35.788,37.056c0,0.435,0.024,0.894,0.036,1.341l8.853,60.766c2.85,19.579,4.807,39.291,5.858,59.051
		l0.229,4.167c1.896,53.133,22.007,90.189,56.949,130.277h24.347c-34.943-40.088-55.053-77.144-56.949-130.277L114.639,377.556z"/>
	<path style="fill:#E5B48F;" d="M178.477,169.169L178.477,169.169c-18.851,9.932-29.965,30.144-28.252,51.382
		c2.053,25.46,4.711,58.291,6.113,75.078l-8.938-53.736l-0.906-1.8l-5.399-32.503c-0.036-0.87-0.036-1.727,0.012-2.573
		c0.411-13.214,7.803-24.773,18.709-30.993c5.037-2.875,10.834-4.602,17.03-4.831c0.459-0.012,0.906-0.024,1.353-0.024
		L178.477,169.169L178.477,169.169z"/>
	<path style="fill:#E5B48F;" d="M418.581,263.271c-37.648,39.327-55.911,117.957-55.911,117.957l7.972-53.229l3.213-21.391
		c1.872-12.549,8.213-23.48,17.248-31.259C398.688,268.803,408.205,264.479,418.581,263.271z"/>
	<path style="fill:#E5B48F;" d="M212.247,55.343l10.001,215.96l-6.848-70.115l-19.144-159.41
		c-2.573-20.328,11.813-38.892,32.14-41.477C229.978,0.097,231.548,0,233.094,0C218.829,14.796,211.293,34.81,212.247,55.343z"/>
	<path style="fill:#E5B48F;" d="M379.581,17.936L379.581,17.936c-12.857,6.403-22.185,18.212-25.433,32.203l-47.653,205.232
		l30.896-206.237C340.434,28.867,359.314,14.905,379.581,17.936z"/>
</g>
<g>
</g>
<g>
</g>
<g>
</g>
<g>
</g>
<g>
</g>
<g>
</g>
<g>
</g>
<g>
</g>
<g>
</g>
<g>
</g>
<g>
</g>
<g>
</g>
<g>
</g>
<g>
</g>
<g>
</g>
</svg>
